# xmcd
#
# Track frame offsets: 
#        150
#        9553
#        22130
#        43496
#        56627
#        69884
#        79505
#        89105
#        100987
#        114019
#        122019
#
# Disc length: 1811 seconds
#
# Revision: 0
# Processed by: cddbd v1.5.2PL0 Copyright (c) Steve Scherf et al.
# Submitted via: ExactAudioCopy v1.0b1
#
DISCID=8d07110b
DTITLE=Johnny Cash - Everybody Loves A Nut
DYEAR=1966
DGENRE=Country
TTITLE0=Everybody Loves A Nut
TTITLE1=The One On The RIght Is On The Left
TTITLE2=A Cup Of Coffee
TTITLE3=A Big That Tried To Crawl Around The World
TTITLE4=The Singing Star's Queen
TTITLE5=Austin Prison
TTITLE6=Dirty Old Egg-Sucking Dog
TTITLE7=Take Me Home
TTITLE8=Please Don't Play Red River Valley
TTITLE9=Boa Constrictor
TTITLE10=Joe Bean
EXTD=
EXTT0=
EXTT1=
EXTT2=
EXTT3=
EXTT4=
EXTT5=
EXTT6=
EXTT7=
EXTT8=
EXTT9=
EXTT10=
PLAYORDER=
